<svg width="32" height="32" viewBox="0 0 32 32" fill="none" xmlns="http://www.w3.org/2000/svg">
<path d="M10.3993 2.66797H21.5993C25.866 2.66797 29.3327 6.13464 29.3327 10.4013V21.6013C29.3327 23.6523 28.5179 25.6193 27.0676 27.0696C25.6174 28.5199 23.6504 29.3346 21.5993 29.3346H10.3993C6.13268 29.3346 2.66602 25.868 2.66602 21.6013V10.4013C2.66602 8.35029 3.48078 6.38329 4.93106 4.93301C6.38134 3.48273 8.34834 2.66797 10.3993 2.66797ZM10.1327 5.33464C8.85964 5.33464 7.63874 5.84035 6.73857 6.74052C5.8384 7.6407 5.33268 8.8616 5.33268 10.1346V21.868C5.33268 24.5213 7.47935 26.668 10.1327 26.668H21.866C23.1391 26.668 24.36 26.1623 25.2601 25.2621C26.1603 24.3619 26.666 23.141 26.666 21.868V10.1346C26.666 7.4813 24.5193 5.33464 21.866 5.33464H10.1327ZM22.9993 7.33464C23.4414 7.33464 23.8653 7.51023 24.1779 7.82279C24.4904 8.13535 24.666 8.55927 24.666 9.0013C24.666 9.44333 24.4904 9.86725 24.1779 10.1798C23.8653 10.4924 23.4414 10.668 22.9993 10.668C22.5573 10.668 22.1334 10.4924 21.8208 10.1798C21.5083 9.86725 21.3327 9.44333 21.3327 9.0013C21.3327 8.55927 21.5083 8.13535 21.8208 7.82279C22.1334 7.51023 22.5573 7.33464 22.9993 7.33464ZM15.9993 9.33464C17.7675 9.33464 19.4632 10.037 20.7134 11.2873C21.9636 12.5375 22.666 14.2332 22.666 16.0013C22.666 17.7694 21.9636 19.4651 20.7134 20.7153C19.4632 21.9656 17.7675 22.668 15.9993 22.668C14.2312 22.668 12.5355 21.9656 11.2853 20.7153C10.0351 19.4651 9.33268 17.7694 9.33268 16.0013C9.33268 14.2332 10.0351 12.5375 11.2853 11.2873C12.5355 10.037 14.2312 9.33464 15.9993 9.33464ZM15.9993 12.0013C14.9385 12.0013 13.9211 12.4227 13.1709 13.1729C12.4208 13.923 11.9993 14.9404 11.9993 16.0013C11.9993 17.0622 12.4208 18.0796 13.1709 18.8297C13.9211 19.5799 14.9385 20.0013 15.9993 20.0013C17.0602 20.0013 18.0776 19.5799 18.8278 18.8297C19.5779 18.0796 19.9993 17.0622 19.9993 16.0013C19.9993 14.9404 19.5779 13.923 18.8278 13.1729C18.0776 12.4227 17.0602 12.0013 15.9993 12.0013Z" fill="black"/>
</svg>
