<svg width="95" height="95" viewBox="0 0 95 95" fill="none" xmlns="http://www.w3.org/2000/svg">
<circle cx="47.5" cy="47.5" r="47" stroke="#FF9002"/>
<path d="M37.8476 53.6654C38.0172 52.9099 37.7089 51.8308 37.1693 51.2912L33.423 47.5449C32.2514 46.3733 31.7889 45.1245 32.128 44.0454C32.4826 42.9662 33.5772 42.2262 35.2114 41.9487L40.0214 41.147C40.7151 41.0237 41.563 40.407 41.8868 39.7749L44.5385 34.4562C45.3093 32.9299 46.3576 32.082 47.4985 32.082C48.6393 32.082 49.6876 32.9299 50.4585 34.4562L53.1101 39.7749C53.3105 40.1758 53.7268 40.5612 54.1739 40.8233L37.5701 57.427C37.3543 57.6429 36.9843 57.4424 37.046 57.1341L37.8476 53.6654Z" fill="#FF9002"/>
<path d="M57.8289 51.2973C57.2739 51.8523 56.9656 52.9161 57.1506 53.6715L58.2143 58.3119C58.6614 60.239 58.3839 61.6881 57.4281 62.3819C57.0427 62.6594 56.5802 62.7981 56.0406 62.7981C55.2543 62.7981 54.3293 62.5052 53.3118 61.904L48.7947 59.2215C48.0856 58.8052 46.9139 58.8052 46.2047 59.2215L41.6877 61.904C39.9764 62.9061 38.5118 63.0756 37.5714 62.3819C37.2168 62.1198 36.9547 61.7652 36.7852 61.3027L55.5318 42.5561C56.241 41.8469 57.2431 41.5231 58.2143 41.6927L59.7714 41.9548C61.4056 42.2323 62.5002 42.9723 62.8547 44.0515C63.1939 45.1306 62.7314 46.3794 61.5597 47.5511L57.8289 51.2973Z" fill="#FF9002"/>
</svg>
