<svg width="32" height="32" viewBox="0 0 32 32" fill="none" xmlns="http://www.w3.org/2000/svg">
<path d="M3.33398 15.9987C3.33398 10.0276 3.33398 7.04202 5.18897 5.18702C7.04397 3.33203 10.0295 3.33203 16.0007 3.33203C21.9717 3.33203 24.9573 3.33203 26.8124 5.18702C28.6673 7.04202 28.6673 10.0276 28.6673 15.9987C28.6673 21.9698 28.6673 24.9554 26.8124 26.8104C24.9573 28.6654 21.9717 28.6654 16.0007 28.6654C10.0295 28.6654 7.04397 28.6654 5.18897 26.8104C3.33398 24.9554 3.33398 21.9698 3.33398 15.9987Z" stroke="black" stroke-width="3" stroke-linejoin="round"/>
<path d="M14.0485 14.678C12.9551 14.5234 10.4629 14.7792 9.2408 17.0389C8.01872 19.2985 9.25038 21.6504 10.019 22.5438C10.778 23.3797 13.1903 24.9626 15.7492 23.4172C16.3834 23.0341 17.1736 22.7484 18.07 19.755L17.9657 7.97656C17.7928 9.27355 19.2254 12.3156 23.3046 12.6756" stroke="black" stroke-width="3" stroke-linecap="round" stroke-linejoin="round"/>
</svg>
